<svg version="1.1" id="Layer_1" xmlns="http://www.w3.org/2000/svg" xmlns:xlink="http://www.w3.org/1999/xlink" x="0px" y="0px" width="135px" height="135px" viewBox="0 0 135 135" style="enable-background:new 0 0 135 135" xml:space="preserve"><style type="text/css">.st1{fill:#aab9ba}.st2{fill:#47c67b}.st3{fill:#aac8d1}.st4{fill:none;stroke:#e83834;stroke-width:6;stroke-linecap:round;stroke-linejoin:round;stroke-miterlimit:10}.st5{fill:#7bc67b}.st6{fill:#7bc7ff}.st7{fill:#7c34c1}.st8{fill:#7c8d96}.st9{fill:#ad2707}.st10{fill:#adb8bc}.st11{fill:#107510}.st12{fill:#7fe5d8}.st13{fill:#af4ad1}.st14{fill:#e02b7e}.st15{fill:#e04038}.st16{fill:#afd7dd}.st17{fill:#e0a010}.st18{fill:#e0d5a4}.st19{fill:#12b2b2}.st20{fill:#12d66b}.st21{fill:#e1a9ff}.st22{fill:#1362a8}.st23{fill:#e2378d}.st24{fill:#e29c37}.st25{fill:#e2b90e}.st26{fill:#e2bf91}.st27{fill:#e2cbaa}.st28{fill:#14a594}.st29{fill:#e4e9ed}.st30{fill:#4a5d60}.st31{fill:#e5b076}.st32{fill:#e5b1c4}.st33{fill:#e5e4c3}.st34{fill:#4b6466}.st35{fill:#e6ff2e}.st36{fill:#18aa67}.st37{fill:#e86207}.st38{fill:#e8a113}.st39{fill:#e8b5a6}.st40{fill:#e8e8ed}.st41{fill:#4e5154}.st42{fill:#e9f1f4}.st43{fill:#4f4b48}.st44{fill:#4f74e8}.st45{fill:#808e93}.st46{fill:#80949b}.st47{fill:#80edac}.st48{fill:#b122e0}.st49{fill:#b2c4cc}.st50{fill:#83d839}.st51{fill:#b3c6c6}.st52{fill:none;stroke:#33363a;stroke-width:3;stroke-linecap:round;stroke-linejoin:round;stroke-miterlimit:10}.st53{fill:#1a8e1c}.st54{fill:#1a93d6}.st55{fill:#b50b0b}.st56{fill:#1ad88f}.st57{fill:#b5daf4}.st58{fill:#ea7b1f}.st59{fill:#ea81bd}.st60{fill:#87b8d6}.st61{fill:#87c3f4}.st62{fill:#eac79d}.st63{fill:#eadf11}.st64{fill:#eae4c5}.st65{fill:#b78094}.st66{fill:#8844d8}.st67{fill:#ebf4f7}.st68{fill:#893015}.st69{fill:#89410b}.st70{fill:#899ba3}.st71{fill:#ede3b9}.st72{enable-background:new}.st73{fill:#50ff9f}.st74{fill:#eedcf4}.st75{fill:#efa37d}.st76{fill:#efa3cc}.st77{fill:#efc99a}.st78{fill:#54af79}.st79{fill:#ba503a}.st80{fill:#ba8663}.st81{fill:#8b4fe0}.st82{fill:#58ed9b}.st83{fill:#bc7dff}.st84{fill:#8d9aa3}.st85{fill:#bccad3}.st86{fill:#8de4ff}.st87{fill:#20b518}.st88{fill:#bf44f2}.st89{fill:#21cea1}.st90{fill:#bfdae0}.st91{fill:#f0fbfc}.st92{fill:#f2d9a7}.st93{fill:#f2eac9}.st94{fill:#24d1af}.st95{fill:#25931c}.st96{fill:#f4c4b3}.st97{fill:#f4d3a2}.st98{fill:#f4d647}.st99{fill:#f4d7b8}.st100{fill:#f4ec8e}.st101{fill:#5b524d}.st102{fill:#f77819}.st103{fill:#f79ae1}.st104{fill:#5e707a}.st105{fill:#f93585}.st106{fill:#f95d5d}.st107{fill:#f9c19b}.st108{fill:#f9cb58}.st109{fill:#f9d2b2}.st110{fill:#f9f07d}.st111{fill:#f9f1d2}.st112{fill:#f9f4b7}.st113{fill:#f9f9e4}.st114{fill:#5f1daa}.st115{fill:#5f9ad6}.st116{fill:#c0c0c4}.st117{fill:#91ea57}.st118{fill:#c12727}.st119{fill:#c191a0}.st120{fill:#923bb7}.st121{fill:#93a0a3}.st122{fill:#93f9ea}.st123{fill:#93ff5a}.st124{fill:#c4833d}.st125{fill:#95a2a5}.st126{fill:#965514}.st127{fill:#96562c}.st128{fill:#2af42f}.st129{fill:#c5d7dd}.st130{fill:#c68510}.st131{fill:#c6a86d}.st132{fill:#c6bb8d}.st133{fill:#2c9dce}.st134{fill:#fbfcf2}.st135{fill:#fc70b0}.st136{fill:#fce6c8}.st137{fill:#fcf7e3}.st138{fill:#c90d6b}.st139{fill:#fdfeff}.st140{fill:#fdffdc}.st141{fill:#ff1a1a}.st142{fill:#ff5252}.st143{fill:#ff5b00}.st144{fill:#ff6155}.st145{fill:#ff630d}.st146{fill:#f66}.st147{fill:#ff7676}.st148{fill:#ff7900}.st149{fill:#ff860d}.st150{fill:#ff8b00}.st151{fill:#ff8f8f}.st152{fill:#ff900b}.st153{fill:#ff908a}.st154{fill:#ff960b}.st155{fill:#ff9c0d}.st156{fill:#ffa9d4}.st157{fill:#fa0}.st158{fill:#ffad40}.st159{fill:#ffaf10}.st160{fill:#ffb000}.st161{fill:#ffbe08}.st162{fill:#ffbf31}.st163{fill:#ffc200}.st164{fill:#ffcae8}.st165{fill:#ffccf5}.st166{fill:#ffd00b}.st167{fill:#ffd039}.st168{fill:#ffd400}.st169{fill:#ffd833}.st170{fill:#ffdb80}.st171{fill:#ffddd2}.st172{fill:#ffe6d4}.st173{fill:#ffe6eb}.st174{fill:#ffe98d}.st175{fill:#ffecd2}.st176{fill:#fff1d9}.st177{fill:#fff24d}.st178{fill:#fff3c2}.st179{fill:#fff4c7}.st180{fill:#fff800}.st181{fill:#fff80d}.st182{fill:#fff9de}.st183{fill:#fffbd7}.st184{fill:#fffbeb}.st185{fill:#fffcc0}.st186{fill:#fffcdc}.st187{fill:#fffffa}.st188{fill:#fff}.st189{fill:#63797f}.st190{fill:#65e529}.st191{fill:#66310e}.st192{fill:#663c17}.st193{fill:#9a5ae5}.st194{fill:#ca30ef}.st195{fill:#6892fc}.st196{fill:#9cffc4}.st197{fill:#cc4306}.st198{fill:#cc549e}.st199{fill:#9e3256}.st200{fill:#cdffbb}.st201{fill:#ce86af}.st202{fill:#ced9dd}.st203{fill:none;stroke:#33363a;stroke-width:3;stroke-linecap:round;stroke-linejoin:round;stroke-miterlimit:10;stroke-dasharray:6}.st204{fill:#cfe1e2}.st205{fill:#33363a}.st206{fill:#34c166}.st207{fill:#364b5b}.st208{fill:#3662ce}.st209{fill:#36c6ff}.st210{fill:#6adb9a}.st211{fill:#6d5c4d}.st212{fill:#6ebdf9}.st213{fill:#0031ff}.st214{fill:#0062ff}.st215{fill:#0068ff}.st216{fill:#0086ff}.st217{fill:#009be8}.st218{fill:#0af}.st219{fill:#d271ff}.st220{fill:#d363a9}.st221{fill:#d3964c}.st222{fill:#d3dfe2}.st223{fill:#d3e0e2}.st224{fill:#d3eff4}.st225{fill:#063b66}.st226{fill:#d60909}.st227{fill:#d61d1d}.st228{fill:#d7f0ff}.st229{fill:#09b285}.st230{fill:#d8d593}.st231{fill:#d8e2ea}.st232{fill:#d8e5ea}.st233{fill:#3e5054}.st234{fill:#d988ff}.st235{fill:#d9e7e8}.st236{fill:#702252}.st237{fill:#70d3e0}.st238{fill:#a02ff2}.st239{fill:#a2f255}.st240{fill:#a35616}.st241{fill:#a3cccc}.st242{fill:#0a6add}.st243{fill:#a5145d}.st244{fill:#a57555}.st245{fill:#77d6fc}.st246{fill:#7815ce}.st247{fill:#a7bbc1}.st248{fill:#dbd279}.st249{fill:#0d5c9e}.st250{fill:#a83c11}.st251{fill:#a8633d}.st252{fill:#a8a3e5}.st253{fill:#dce6ea}.st254{fill:#dce7ea}.st255{fill:#a962e8}.st256{fill:#dd2466}.st257{fill:#ddc38a}.st258{fill:#ddd2b1}.st259{fill:#dfe7e8}.st260{fill:#42b1e8}.st261{fill:#436377}.st262{fill:#43b530}</style><g><g><g><path class="st232" d="M107.515,19.271h-12.08v-6.12c0-4.228-3.428-7.651-7.652-7.651H47.222c-4.229,0-7.656,3.424-7.656,7.651
				v6.12h-12.08c-8.338,0-15.1,6.758-15.1,15.1v80.027c0,8.338,6.762,15.102,15.1,15.102h80.029c8.34,0,15.1-6.764,15.1-15.102
				V34.371C122.614,26.029,115.854,19.271,107.515,19.271z M67.501,104.217c-16.475,0-29.83-13.359-29.83-29.833
				c0-16.475,13.355-29.829,29.83-29.829s29.832,13.354,29.832,29.829C97.333,90.857,83.976,104.217,67.501,104.217z"/></g><g><path class="st129" d="M107.515,33.525h-12.08v-6.119c0-4.227-3.428-7.653-7.652-7.653H47.222c-4.229,0-7.656,3.427-7.656,7.653
				v6.119h-12.08c-8.338,0-15.1,6.762-15.1,15.098v65.775c0,8.338,6.762,15.102,15.1,15.102h80.029c8.34,0,15.1-6.764,15.1-15.102
				V48.623C122.614,40.287,115.854,33.525,107.515,33.525z M97.333,88.639c0,16.475-13.357,29.831-29.832,29.831
				s-29.83-13.356-29.83-29.831c0-2.461,0.33-4.84,0.893-7.127c-0.562-2.289-0.893-4.666-0.893-7.128
				c0-16.475,13.355-29.829,29.83-29.829s29.832,13.354,29.832,29.829c0,2.462-0.332,4.839-0.893,7.128
				C97.001,83.799,97.333,86.178,97.333,88.639z"/></g><g><path class="st205" d="M107.515,131H27.485c-9.153,0-16.6-7.447-16.6-16.602V34.371c0-9.153,7.447-16.6,16.6-16.6h10.58v-4.62
				C38.065,8.105,42.173,4,47.222,4h40.561c5.046,0,9.152,4.105,9.152,9.151v4.62h10.58c9.153,0,16.6,7.447,16.6,16.6v80.027
				C124.114,123.553,116.667,131,107.515,131z M27.485,20.771c-7.499,0-13.6,6.101-13.6,13.6v80.027c0,7.5,6.101,13.602,13.6,13.602
				h80.029c7.499,0,13.6-6.102,13.6-13.602V34.371c0-7.499-6.101-13.6-13.6-13.6h-12.08c-0.829,0-1.5-0.671-1.5-1.5v-6.12
				c0-3.392-2.76-6.151-6.152-6.151H47.222c-3.395,0-6.156,2.759-6.156,6.151v6.12c0,0.829-0.671,1.5-1.5,1.5H27.485z
				 M67.501,105.717c-17.275,0-31.33-14.056-31.33-31.333c0-17.275,14.055-31.329,31.33-31.329
				c17.276,0,31.332,14.054,31.332,31.329C98.833,91.661,84.777,105.717,67.501,105.717z M67.501,46.055
				c-15.621,0-28.33,12.708-28.33,28.329c0,15.623,12.709,28.333,28.33,28.333c15.623,0,28.332-12.71,28.332-28.333
				C95.833,58.763,83.124,46.055,67.501,46.055z"/></g></g><g><g><circle class="st151" cx="67.501" cy="77.184" r="32.959"/></g><g><path class="st141" d="M100.46,77.184c0,13.943-14.756,25.248-32.959,25.248S34.542,91.127,34.542,77.184
				c0-13.939,14.756-25.244,32.959-25.244S100.46,63.244,100.46,77.184z"/></g><g><path class="st188" d="M34.542,77.184c0,18.205,14.756,32.961,32.959,32.961s32.959-14.756,32.959-32.961H34.542z"/></g><g><path class="st232" d="M67.501,102.432c18.203,0,32.959-11.305,32.959-25.248H34.542
				C34.542,91.127,49.298,102.432,67.501,102.432z"/></g><g><path class="st205" d="M67.501,111.645c-19.001,0-34.459-15.459-34.459-34.461c0-19,15.458-34.457,34.459-34.457
				s34.459,15.458,34.459,34.457C101.96,96.186,86.502,111.645,67.501,111.645z M67.501,45.727
				c-17.347,0-31.459,14.111-31.459,31.457c0,17.348,14.112,31.461,31.459,31.461S98.96,94.531,98.96,77.184
				C98.96,59.838,84.848,45.727,67.501,45.727z"/></g><g><path class="st205" d="M100.46,78.684H34.542c-0.829,0-1.5-0.672-1.5-1.5s0.671-1.5,1.5-1.5h65.918c0.829,0,1.5,0.672,1.5,1.5
				S101.289,78.684,100.46,78.684z"/></g><g><g><circle class="st247" cx="67.5" cy="80.96" r="10.898"/></g><g><circle class="st188" cx="67.5" cy="77.256" r="10.899"/></g><g><path class="st232" d="M59.794,84.963c-4.254-4.256-4.254-11.158,0-15.414c4.258-4.256,11.158-4.256,15.412,0"/></g><g><path class="st205" d="M67.501,89.653c-3.312,0-6.425-1.289-8.768-3.629c-4.833-4.836-4.833-12.701-0.001-17.536
					c2.343-2.342,5.457-3.631,8.769-3.631c3.312,0,6.425,1.29,8.766,3.631c2.342,2.342,3.632,5.455,3.632,8.768
					s-1.29,6.427-3.633,8.768C73.926,88.364,70.813,89.653,67.501,89.653z M67.501,67.857c-2.51,0-4.871,0.978-6.647,2.752
					c-3.663,3.665-3.663,9.628,0,13.293c1.775,1.773,4.136,2.751,6.646,2.751c2.51,0,4.87-0.977,6.644-2.751
					c1.776-1.775,2.754-4.136,2.754-6.646s-0.978-4.871-2.754-6.646C72.371,68.834,70.012,67.857,67.501,67.857z"/></g></g></g><g><path class="st205" d="M67.501,121.377c-0.829,0-1.5-0.672-1.5-1.5v-9.623c0-0.828,0.671-1.5,1.5-1.5s1.5,0.672,1.5,1.5v9.623
			C69.001,120.705,68.33,121.377,67.501,121.377z"/></g><g><path class="st205" d="M111.104,106.645h-9.623c-0.829,0-1.5-0.672-1.5-1.5s0.671-1.5,1.5-1.5h9.623c0.829,0,1.5,0.672,1.5,1.5
			S111.933,106.645,111.104,106.645z"/></g><g><path class="st205" d="M111.104,112.502h-9.623c-0.829,0-1.5-0.672-1.5-1.5s0.671-1.5,1.5-1.5h9.623c0.829,0,1.5,0.672,1.5,1.5
			S111.933,112.502,111.104,112.502z"/></g><g><path class="st205" d="M111.104,118.357h-9.623c-0.829,0-1.5-0.672-1.5-1.5s0.671-1.5,1.5-1.5h9.623c0.829,0,1.5,0.672,1.5,1.5
			S111.933,118.357,111.104,118.357z"/></g><g><path class="st205" d="M67.501,131c-0.829,0-1.5-0.672-1.5-1.5v-3.127c0-0.828,0.671-1.5,1.5-1.5s1.5,0.672,1.5,1.5v3.127
			C69.001,130.328,68.33,131,67.501,131z"/></g><g><g><circle class="st247" cx="30.312" cy="40.432" r="6.403"/></g><g><circle class="st123" cx="30.312" cy="37.255" r="6.403"/></g><g><path class="st190" d="M25.784,41.783c-2.5-2.5-2.5-6.555,0-9.056c2.502-2.5,6.555-2.5,9.055,0"/></g><g><path class="st205" d="M30.312,45.158c-2.111,0-4.095-0.822-5.588-2.314c-3.082-3.081-3.082-8.095-0.001-11.177
				c1.494-1.493,3.479-2.314,5.589-2.314c2.11,0,4.095,0.822,5.587,2.314c1.493,1.493,2.316,3.478,2.316,5.589
				s-0.823,4.096-2.316,5.588C34.407,44.336,32.423,45.158,30.312,45.158z M30.312,32.353c-1.31,0-2.542,0.51-3.468,1.436
				c-1.911,1.912-1.911,5.022,0,6.934c0.926,0.925,2.158,1.436,3.468,1.436c1.309,0,2.54-0.51,3.466-1.436
				c0.927-0.926,1.437-2.157,1.437-3.467c0-1.31-0.51-2.541-1.437-3.467C32.853,32.862,31.622,32.353,30.312,32.353z"/></g></g></g></svg>